<?xml version="1.0" standalone="no"?>
<!DOCTYPE svg PUBLIC "-//W3C//DTD SVG 20010904//EN"
 "http://www.w3.org/TR/2001/REC-SVG-20010904/DTD/svg10.dtd">
<svg version="1.0" xmlns="http://www.w3.org/2000/svg"
 width="128.000000pt" height="128.000000pt" viewBox="0 0 128.000000 128.000000"
 preserveAspectRatio="xMidYMid meet">
<metadata>
Created by potrace 1.15, written by Peter Selinger 2001-2017
</metadata>
<g transform="translate(0.000000,128.000000) scale(0.100000,-0.100000)"
fill="#000000" stroke="none">
<path d="M465 1261 c-223 -65 -392 -238 -449 -458 -21 -80 -21 -246 0 -327 57
-220 248 -410 465 -461 82 -19 236 -19 318 0 219 52 414 247 466 466 19 82 19
236 0 318 -51 217 -241 408 -461 465 -84 22 -260 20 -339 -3z m355 -78 c233
-76 393 -297 393 -543 0 -314 -259 -573 -573 -573 -389 0 -667 384 -544 752
83 249 327 414 584 394 36 -3 99 -16 140 -30z"/>
<path d="M364 1053 c-56 -4 -61 -9 -88 -91 -14 -42 -14 -43 8 -35 33 12 102 9
120 -6 9 -7 16 -26 16 -41 0 -15 12 -45 28 -66 78 -113 87 -123 110 -124 17 0
27 -9 35 -30 10 -26 17 -30 48 -30 46 0 100 -38 77 -54 -24 -18 -40 -55 -32
-79 3 -12 21 -38 39 -57 32 -35 33 -35 25 -105 -5 -38 -11 -82 -15 -96 -5 -19
0 -33 17 -53 29 -35 58 -27 58 16 0 44 22 77 94 145 36 34 66 68 66 76 0 8 9
26 21 41 17 21 19 29 9 41 -7 8 -21 15 -30 15 -10 0 -32 14 -48 30 -24 24 -39
30 -72 30 -35 0 -47 6 -73 35 -17 19 -36 35 -43 35 -6 0 -14 9 -17 20 -3 11
-13 20 -24 20 -10 0 -24 4 -32 9 -11 7 -6 12 20 19 19 5 38 5 44 1 15 -14 25
-10 25 9 0 20 69 92 87 92 22 0 25 21 7 36 -18 14 -17 15 11 10 17 -3 40 -8
53 -12 13 -4 22 -2 22 5 0 6 -5 11 -10 11 -6 0 -15 11 -20 25 -12 30 -97 87
-125 83 -15 -2 -21 -12 -23 -40 -4 -45 -13 -47 -65 -11 l-40 28 30 12 c35 14
48 39 32 59 -13 16 -69 18 -115 5 -24 -7 -42 -4 -74 10 -23 10 -56 18 -74 17
-17 -1 -54 -3 -82 -5z"/>
</g>
</svg>
