<?xml version="1.0" standalone="no"?>
<!DOCTYPE svg PUBLIC "-//W3C//DTD SVG 20010904//EN"
 "http://www.w3.org/TR/2001/REC-SVG-20010904/DTD/svg10.dtd">
<svg version="1.0" xmlns="http://www.w3.org/2000/svg"
 width="128.000000pt" height="128.000000pt" viewBox="0 0 128.000000 128.000000"
 preserveAspectRatio="xMidYMid meet">
<metadata>
Created by potrace 1.15, written by Peter Selinger 2001-2017
</metadata>
<g transform="translate(0.000000,128.000000) scale(0.100000,-0.100000)"
fill="#000000" stroke="none">
<path d="M464 1261 c-224 -65 -391 -237 -449 -461 -26 -99 -17 -281 17 -377
65 -182 213 -328 398 -395 57 -20 83 -23 210 -23 132 0 152 2 217 26 183 67
328 214 395 399 20 57 23 83 23 210 0 132 -2 152 -26 217 -67 183 -215 330
-399 394 -90 32 -296 37 -386 10z m356 -78 c233 -76 393 -297 393 -543 0 -314
-259 -573 -573 -573 -389 0 -667 384 -544 752 83 249 327 414 584 394 36 -3
99 -16 140 -30z"/>
<path d="M783 818 l-143 -143 -103 103 -103 103 -24 -26 -24 -26 127 -127 127
-127 170 170 169 169 -21 23 c-12 13 -24 23 -27 23 -3 0 -70 -64 -148 -142z"/>
</g>
</svg>
